<svg t="1685599556621" class="icon" viewBox="0 0 1024 1024" version="1.1" xmlns="http://www.w3.org/2000/svg" p-id="3588" width="200" height="200"><path d="M808.659 211.053L532.116 116.81c-7.251-2.476-14.898-2.996-20.037-2.996-5.139 0-12.786 0.52-20.023 2.991l-276.311 94.164c-16.577 5.594-28.609 22.409-28.609 39.984v392.364c0 14.4 7.932 30.781 19.289 39.834l280.573 218.632 0.095 0.074c6.964 5.371 15.809 8.329 24.904 8.329 9.251 0 18.146-3.001 25.065-8.454l280.34-218.449c11.455-8.966 19.456-25.4 19.456-39.966V251.153c0.24-17.464-11.572-34.29-28.199-40.1z m-19.8 431.813c-0.198 0.823-0.883 2.231-1.412 2.907L511.998 860.411 236.635 645.84c-0.555-0.689-1.282-2.154-1.498-3.018V255.071l272.347-92.814c0.388-0.115 2.065-0.443 4.596-0.443s4.208 0.328 4.54 0.425l272.24 92.776v387.851z" p-id="3589" fill="#1296db"></path><path d="M350.421 448.288c0 75.349 61.301 136.65 136.65 136.65 24.387 0 48.281-6.573 69.119-18.78l76.418 76.418c4.687 4.687 10.828 7.029 16.971 7.029s12.284-2.343 16.971-7.029c9.372-9.373 9.372-24.568 0-33.941l-73.753-73.753c19.874-24.221 30.923-54.658 30.923-86.594 0-75.349-61.301-136.649-136.649-136.649-75.349-0.001-136.65 61.3-136.65 136.649z m225.299 0c0 26.455-11.689 51.332-32.071 68.251-15.846 13.154-35.938 20.398-56.578 20.398-48.882 0-88.65-39.768-88.65-88.65 0-48.881 39.768-88.649 88.65-88.649 48.881 0 88.649 39.768 88.649 88.65z" p-id="3590" fill="#1296db"></path></svg>